inDegrees=no
num_controls=7
num_derivatives=13
num_iterations=21
num_multipliers=7
num_parameters=0
num_slacks=7
num_states=26
objective=0.455388
objective_accelerations=0.000000
objective_balance=0.001169
objective_effort=0.008327
objective_height=0.445892
objective_ligament=0.000000
solver_duration=326.754932
status=Solve_Succeeded
success=true
DataType=double
version=3
OpenSimVersion=4.5
endheader
time	/jointset/ground_pelvis/pelvis_tilt/value	/jointset/ground_pelvis/pelvis_tx/value	/jointset/ground_pelvis/pelvis_ty/value	/jointset/hip_l/hip_flexion_l/value	/jointset/hip_l/hip_adduction_l/value	/jointset/hip_l/hip_rotation_l/value	/jointset/back/lumbar_extension/value	/jointset/patellofemoral_l/patellar_flexion_l/value	/jointset/knee_l/knee_flexion_l/value	/jointset/knee_l/knee_adduction_l/value	/jointset/knee_l/knee_rotation_l/value	/jointset/ankle_l/ankle_angle_l/value	/jointset/subtalar_l/subtalar_angle_l/value	/jointset/ground_pelvis/pelvis_tilt/speed	/jointset/ground_pelvis/pelvis_tx/speed	/jointset/ground_pelvis/pelvis_ty/speed	/jointset/hip_l/hip_flexion_l/speed	/jointset/hip_l/hip_adduction_l/speed	/jointset/hip_l/hip_rotation_l/speed	/jointset/back/lumbar_extension/speed	/jointset/patellofemoral_l/patellar_flexion_l/speed	/jointset/knee_l/knee_flexion_l/speed	/jointset/knee_l/knee_adduction_l/speed	/jointset/knee_l/knee_rotation_l/speed	/jointset/ankle_l/ankle_angle_l/speed	/jointset/subtalar_l/subtalar_angle_l/speed	/forceset/tau_hip_flexion_l	/forceset/tau_hip_adduction_l	/forceset/tau_hip_rotation_l	/forceset/tau_knee_flexion_l	/forceset/tau_ankle_angle_l	/forceset/tau_subtalar_angle_l	/forceset/tau_lumbar_extension	lambda_cid13_p0	lambda_cid13_p1	lambda_cid13_p2	lambda_cid13_p3	lambda_cid13_p4	lambda_cid13_p5	lambda_cid14_p0	/jointset/ground_pelvis/pelvis_tilt/accel	/jointset/ground_pelvis/pelvis_tx/accel	/jointset/ground_pelvis/pelvis_ty/accel	/jointset/hip_l/hip_flexion_l/accel	/jointset/hip_l/hip_adduction_l/accel	/jointset/hip_l/hip_rotation_l/accel	/jointset/back/lumbar_extension/accel	/jointset/patellofemoral_l/patellar_flexion_l/accel	/jointset/knee_l/knee_flexion_l/accel	/jointset/knee_l/knee_adduction_l/accel	/jointset/knee_l/knee_rotation_l/accel	/jointset/ankle_l/ankle_angle_l/accel	/jointset/subtalar_l/subtalar_angle_l/accel	gamma_cid13_p0	gamma_cid13_p1	gamma_cid13_p2	gamma_cid13_p3	gamma_cid13_p4	gamma_cid13_p5	gamma_cid14_p0
0	0.08243130888643195	0.09122492707358731	0.9105622834053416	0.1266922784136757	-0.2831620213619624	-0.09705098902203564	-0.2144969558742783	0.2051545070113217	0.2051545070141877	-0.01070259203859059	0.009820010235132629	0.09024313228550125	0.1730564157182869	0	0	0	0	0	0	0	0	0	0	0	0	0	0.09464205559499896	-0.04036398778377932	0.02322010993266785	-0.1625420507207617	0.1493917644212771	-0.04526769106083063	-0.05333322002562454	26.08336458233076	24.48667859391238	-14.91498230084441	-26.80192735792014	-293.4546734659782	-14.56593391754773	-20.85928060783245	-9.026594865877549	-2.282530848457955	-5.296875618445835	43.76031918628295	-22.77606168768721	7.89995881050158	0.6789460292649803	56.55531245327917	56.55531245327917	-37.74381516042499	-18.97228385737721	21.77545609444745	-17.33815543037165	5.21361231049773e-05	-0.0001456038209008011	0.0001379384156561462	-4.106014968735105e-05	3.868326547399941e-05	-0.0001678534858797825	-2.696321608638249e-06
0.01	0.08185903066838826	0.09111300740539333	0.9103280119921284	0.1288158141053491	-0.2839857234560127	-0.09684251755393554	-0.2143372214101556	0.2076021725395915	0.2076021725415057	-0.01200231712497689	0.00895151012869216	0.09116212197528074	0.1724797696074777	-0.1305226932571426	-0.02225305414123708	-0.04444762237491231	0.4254287933977422	-0.133233678844233	0.02764046923834155	0.04871421573950935	0.4563059315249272	0.4563059315254293	-0.2006530296453903	-0.1621565486865491	0.1685350229511465	-0.08569569065691893	0.1321733970006427	0.004992403842063971	0.02294907365604334	-0.2360785815587986	0.1978276273742322	-0.05250632053123067	-0.06470434617090971	34.51042546858421	29.42895797187365	-19.44289935770296	-18.47832181624137	-392.1461806349357	-24.52835217652521	-20.88599367439486	-17.47046157604948	-2.185272578666176	-3.649969859938595	42.04829665502134	-3.878240522929867	-1.940074339740872	9.482757651372182	35.18469659317445	35.18469659325538	-2.340417200009602	-13.07815352405917	12.10814617699123	0.2647324986332308	1.787143205326094e-05	-6.132438722574239e-05	5.587095618341804e-05	-1.748779987988489e-05	3.46280233575861e-05	-5.77830499945784e-05	-4.314873809081112e-06
0.02	0.07950045451504088	0.09078084121967904	0.9097230114926391	0.1352164651826213	-0.2851980062476669	-0.09678487446061815	-0.2131873251269351	0.2136161900025381	0.2136161900040507	-0.01353144658492859	0.006813281909963615	0.09330958604774024	0.1719361682659462	-0.3572595873443373	-0.04404930350405722	-0.07414581725521727	0.8554230763356337	-0.0777161392994736	-0.03016567433302164	0.1980323636715651	0.7132703866932232	0.7132703866942268	-0.0458808726241207	-0.2539456233641424	0.2456948771651664	0.006608953967236147	0.1697047384478464	0.05034879549219054	0.0226780373517026	-0.3096151123701234	0.2462634903389265	-0.05974494996350541	-0.07607547229290251	43.17530394167385	34.30334467746166	-23.92956843025845	-10.77378486775953	-487.2385423728728	-33.92853090544705	-20.93973967547596	-28.26943503197057	-2.19116989269465	-2.346990119526456	44.67341709429321	14.97418199010672	-9.189363751453305	20.79973246773107	16.68701718194025	16.68701718194025	33.34122217290256	-4.898789055579387	3.500422347111765	18.26191162587312	-1.639325899845542e-05	2.29550464493163e-05	-2.619650328931013e-05	6.084549927581281e-06	3.057278124117279e-05	5.22873858906257e-05	-5.933426009523975e-06
0.03	0.07470609300544805	0.09024164666840109	0.9088774794744882	0.145695072402508	-0.2853413484860832	-0.09745638260175095	-0.2103442511648983	0.2214499331518556	0.2214499331650235	-0.01257410764965861	0.00409312472214844	0.09590303730024279	0.172772448672252	-0.5826269691173337	-0.06271394268173723	-0.09368448560198243	1.209982161242037	0.03659613108668799	-0.09507988576778874	0.3530216761832121	0.840950679725452	0.8409506797254835	0.2100716260775658	-0.2847997391481048	0.2693363085650522	0.1452549835112047	0.1464906580600158	0.03813121292376898	0.02339084745730322	-0.2874163888687572	0.228700637828222	-0.05857398949473695	-0.06303989769872177	38.90855718011526	33.2926915636283	-22.34153481195807	-12.1254517225454	-469.7078893201697	-30.90812959841422	-20.99003801107155	-16.82571140356143	-1.541448937122631	-1.559791908627902	26.29682064586804	7.796669466149716	-3.778740227238238	10.21441766702145	8.930594104910758	8.93059410480824	17.63018423453661	-1.391270092106788	1.24419888141927	9.357027412962715	-8.770900558040643e-06	1.313742647077203e-05	-1.42088856084096e-05	3.464083072608064e-06	1.523932365078471e-05	2.764295214976994e-05	-2.99219638799367e-06
0.04	0.06822699335705774	0.08954833812434221	0.907876063429408	0.1588092037543711	-0.2847141840019733	-0.09850429091452628	-0.2064781066743143	0.2301848909743684	0.2301848909739772	-0.00987565958903845	0.001221916908138071	0.09862254196328971	0.1745334051324943	-0.6942072170260963	-0.07487210206023989	-0.1053226226410764	1.382527904446073	0.07638519763362618	-0.1054457127165458	0.4026464696503469	0.8935133223970021	0.8935133223960514	0.3023409453986057	-0.2841557450220804	0.2709055537641074	0.1915441648218788	0.1232765774014687	0.02591363017662511	0.02410365781534707	-0.2652176655572523	0.2111377852223012	-0.05740302930221455	-0.05000432324623669	34.55804019457035	32.30276739281266	-20.7638138427364	-13.40783119937901	-453.2405763068638	-27.67283572903449	-21.03256731693913	-5.512008259184576	-0.889873932776441	-0.7668838579938777	8.270748753822227	0.06954122225706202	1.720313145731158	-0.273171341217035	1.663487109787677	1.663487109787686	0.6045862967724052	1.400832926414985	-0.9140148929626616	-0.2094580207550536	-2.848916126334621e-07	1.379661056070969e-06	-2.819879861970955e-07	3.03558142120631e-07	-3.266744648399656e-07	2.208922310572604e-07	4.304935357731991e-08
0.05	0.06105650425858922	0.08875968065292754	0.9067906814229666	0.1729581812561185	-0.2839538727357481	-0.09946364582435302	-0.2025000498445074	0.2391489864450319	0.2391489864444201	-0.006846000000605876	-0.001530945141143154	0.1012697691959557	0.1764240586182143	-0.735218258030869	-0.08241236434446852	-0.1111185088490877	1.438612587598475	0.07483083497384967	-0.08537705899145227	0.3894697318351866	0.8943992763257044	0.8943992763253482	0.3008491023833356	-0.2647194693941972	0.2571267454400318	0.1850443023434607	0.1135458147083588	0.02792820941271857	0.02399936887650941	-0.2598230335336676	0.2050241714068156	-0.05718014158380037	-0.04281633793932556	32.5320315785618	32.09803703105037	-20.20269638029166	-13.59219912936046	-455.6666690681548	-27.40507017087705	-21.06634964203036	-2.694756012282703	-0.6190128165176716	-0.3908416583872605	2.979105904458058	-0.3951583631274619	2.307390858002162	-2.364199792783574	-1.4348579620902	-1.434857961997912	-0.9370989925386618	2.469617119510789	-1.821721307132582	-1.101762553375388	1.490466463898297e-07	2.836977954054814e-07	2.906347076576297e-07	7.070385177832086e-08	-4.35960646820697e-07	-7.008894848086464e-07	1.203659129578512e-07
0.06	0.05361608395345697	0.08790903847081853	0.9056663604233003	0.1874083611548656	-0.2832345517725608	-0.1001908643250493	-0.1987586153502627	0.247974739956608	0.2479747399573344	-0.003913464728122444	-0.00403852598458968	0.1037368268402515	0.1782034110407229	-0.7481934586952335	-0.08726904419910873	-0.1131104212860335	1.442768383090798	0.06818713818828097	-0.05901843038226917	0.3553220023657349	0.8658449303948825	0.8658449303951237	0.2829160836956986	-0.235099504225092	0.2348716369170908	0.1692839521870846	0.1038150520600406	0.02994278867767708	0.02389507990510444	-0.2544284014794574	0.1989105576058063	-0.05695725382064	-0.03562835260868766	30.4795610015336	31.90789011520746	-19.6552650394481	-13.80357011757473	-458.6642052970168	-27.1552896639516	-21.08942038360793	0.09515980882569711	-0.3531574467851625	-0.006089103782440456	-2.115028778214964	-0.9483256029069533	2.978308122540133	-4.467369672114959	-4.22457286212923	-4.22457286212923	-2.683648837707438	3.437570834668426	-2.609274932653319	-2.061555556319741	2.43950350196955e-07	-3.633474798269268e-07	3.009721413709702e-07	-3.888009582103461e-08	1.055620947204267e-07	-5.068700131862648e-07	7.313808571983711e-08
0.07000000000000001	0.04616124019982301	0.08702156560979007	0.904537221705354	0.2016978113654469	-0.282605538077328	-0.1006323749771768	-0.1954396306318106	0.2564162366159897	0.2564162366178995	-0.001232240749227278	-0.006220339642517264	0.105957685018363	0.1797876273740411	-0.7402259531527108	-0.08992925447533918	-0.1124408115254921	1.411415247104078	0.05707983743646733	-0.0292699897262779	0.30700678890657	0.8217023016611457	0.8217023016612658	0.251947096331047	-0.2014621598779548	0.2095163225368931	0.1469975117447537	0.09406509175924635	0.03184128979709099	0.02354400348762546	-0.2466093590494149	0.1909795054257721	-0.05644429018598287	-0.02866352198481659	28.09342436026833	31.54174087561119	-18.95590528468884	-14.14861435679626	-458.2347320041356	-26.73041829061464	-21.1015870343793	1.529992528119918	-0.1780206934095613	0.1449903051110919	-4.201369256549846	-1.272322452219711	2.975100685104154	-5.233820153520986	-4.621936945039531	-4.621936945050268	-3.510791561635696	3.297042751089751	-2.466177323335097	-2.39643776561651	6.253971371712612e-08	-1.925131538925254e-07	1.184876814960766e-07	-3.802310557110275e-09	4.741957875786462e-07	6.360741873542241e-08	-2.19015154129856e-08
